<?xml version="1.0" encoding="UTF-8" standalone="no"?>
<svg width="24px" height="24px" viewBox="0 0 24 24" xmlns="http://www.w3.org/2000/svg">
  <path fill="#FFFFFF" d="M11,14.5 C11,13.9477153 11.4477153,13.5 12,13.5 C12.5522847,13.5 13,13.9477153 13,14.5 L13,18.5 C13,19.0522847 12.5522847,19.5 12,19.5 C11.4477153,19.5 11,19.0522847 11,18.5 L11,14.5 Z M13.5,9.5 C13.5,8.67157288 12.8284271,8 12,8 C11.1715729,8 10.5,8.67157288 10.5,9.5 C10.5,10.3284271 11.1715729,11 12,11 C12.8284271,11 13.5,10.3284271 13.5,9.5 Z M8.88273959,15.5 C7.99471855,14.5869347 7.5,13.3397899 7.5,12 C7.5,9.51471863 9.51471863,7.5 12,7.5 C14.4852814,7.5 16.5,9.51471863 16.5,12 C16.5,13.3397899 16.0052814,14.5869347 15.1172604,15.5 C14.848456,15.7840146 14.3704404,15.79937 14.0864258,15.5305656 C13.8024113,15.2617612 13.7870558,14.7837456 14.0558602,14.499731 C14.654525,13.8673638 15,13.0212241 15,12.0000125 C15,10.3431553 13.6568542,9.00000125 11.9999971,9.00000125 C10.34314,9.00000125 9,10.3431553 9,12.0000125 C9,13.0212241 9.34547496,13.8673638 9.94413976,14.499731 C10.2129442,14.7837456 10.1975887,15.2617612 9.91357422,15.5305656 C9.62955973,15.79937 9.15154405,15.7840146 8.88273959,15.5 Z M6.5,12 C6.5,8.96243388 9.96243388,5.5 13,5.5 C16.0375661,5.5 19.5,8.96243388 19.5,12 C19.5,14.0211307 18.5982466,15.9609063 17.0180433,17.3457477 C16.7321691,17.5950514 16.2550116,17.5563551 16.0057079,17.270481 C15.7564042,16.9846068 15.7951005,16.5074493 16.0809746,16.2581456 C17.2932843,15.1931688 17.9999943,13.636426 17.9999943,12 C17.9999943,9.79086219 16.2091232,8 13.9999855,8 C11.7908478,8 9.99997669,9.79086219 9.99997669,12 C9.99997669,13.636426 10.7066867,15.1931688 11.9189963,16.2581456 C12.2048705,16.5074493 12.2435668,16.9846068 11.9942631,17.270481 C11.7449594,17.5563551 11.2678019,17.5950514 10.9819277,17.3457477 C9.40172437,15.9609063 8.5,14.0211307 8.5,12 C8.5,8.96243388 5.96243388,5.5 2.9,5.5 L4.5,5.5 L4.5,5.5 L4.5,4 L1.5,4 C0.94771525,4 0.5,4.44771525 0.5,5 L0.5,8 L2,8 L2,6.37533385 C5.3481459,6.79072205 8,9.14903248 8,12 C8,15.5935399 5.09365306,18.5 1.5,18.5 L0.5,18.5 L0.5,20 L1.5,20 C5.92446123,20 9.5,16.4244713 9.5,12 C9.5,8.7398044 7.47275934,5.92248362 4.5999999,4.85935442 L4.5999999,3.5 C4.5999999,2.11928813 3.48071179,1 2.1,1 L1.5,1 C0.671572875,1 0,1.67157288 0,2.5 L0,19.5 C0,20.8807119 1.11928813,22 2.5,22 L1.5,22 C5.92445607,22 9.5,18.4244713 9.5,14 L9.5,12 Z"/>
</svg> 