<?xml version="1.0" encoding="UTF-8" standalone="no"?>
<svg width="24px" height="24px" viewBox="0 0 24 24" xmlns="http://www.w3.org/2000/svg">
  <path fill="#FFFFFF" d="M17,22 L17,20 L20,20 L20,17 L22,17 L22,20.5 C22,21.3284271 21.3284271,22 20.5,22 L17,22 Z M7,22 L3.5,22 C2.67157288,22 2,21.3284271 2,20.5 L2,17 L4,17 L4,20 L7,20 L7,22 Z M17,2 L20.5,2 C21.3284271,2 22,2.67157288 22,3.5 L22,7 L20,7 L20,4 L17,4 L17,2 Z M7,2 L7,4 L4,4 L4,7 L2,7 L2,3.5 C2,2.67157288 2.67157288,2 3.5,2 L7,2 Z M12,10 C13.1045695,10 14,10.8954305 14,12 C14,13.1045695 13.1045695,14 12,14 C10.8954305,14 10,13.1045695 10,12 C10,10.8954305 10.8954305,10 12,10 Z M12,8 C9.790861,8 8,9.790861 8,12 C8,14.209139 9.790861,16 12,16 C14.209139,16 16,14.209139 16,12 C16,9.790861 14.209139,8 12,8 Z"/>
</svg> 